<svg width="48" height="48" viewBox="0 0 48 48" fill="none" xmlns="http://www.w3.org/2000/svg">
  <rect width="48" height="48" rx="8" fill="#4F46E5"/>
  <path d="M36 20H31V14C31 12.9 30.1 12 29 12H13C11.9 12 11 12.9 11 14V30C11 30.55 11.45 31 12 31H14C14 33.21 15.79 35 18 35C20.21 35 22 33.21 22 31H30C30 33.21 31.79 35 34 35C36.21 35 38 33.21 38 31H40C40.55 31 41 30.55 41 30V25C41 22.24 38.76 20 36 20ZM18 33C16.9 33 16 32.1 16 31C16 29.9 16.9 29 18 29C19.1 29 20 29.9 20 31C20 32.1 19.1 33 18 33ZM29 20H27V16H29V20ZM23 20H21V16H23V20ZM19 20H17V16H19V20ZM34 33C32.9 33 32 32.1 32 31C32 29.9 32.9 29 34 29C35.1 29 36 29.9 36 31C36 32.1 35.1 33 34 33ZM38 26H37V24H39V25C39 25.55 38.55 26 38 26Z" fill="white"/>
</svg>